<svg xmlns="http://www.w3.org/2000/svg" viewBox="0 0 1200 300" fill="none">
  <defs>
    <linearGradient id="bg" x1="0" y1="0" x2="1200" y2="300" gradientUnits="userSpaceOnUse">
      <stop offset="0%" stop-color="#0c1222"/>
      <stop offset="50%" stop-color="#131c31"/>
      <stop offset="100%" stop-color="#0c1222"/>
    </linearGradient>
    <linearGradient id="accent" x1="0" y1="0" x2="200" y2="0" gradientUnits="userSpaceOnUse">
      <stop offset="0%" stop-color="#FF2D20" stop-opacity="0"/>
      <stop offset="30%" stop-color="#FF2D20" stop-opacity="0.6"/>
      <stop offset="50%" stop-color="#c46aec" stop-opacity="0.8"/>
      <stop offset="70%" stop-color="#0A60B5" stop-opacity="0.6"/>
      <stop offset="100%" stop-color="#0A60B5" stop-opacity="0"/>
    </linearGradient>
    <radialGradient id="glow" cx="600" cy="150" r="400" gradientUnits="userSpaceOnUse">
      <stop offset="0%" stop-color="#1e3a5f" stop-opacity="0.3"/>
      <stop offset="100%" stop-color="#0c1222" stop-opacity="0"/>
    </radialGradient>
  </defs>

  <!-- Background -->
  <rect width="1200" height="300" rx="12" fill="url(#bg)"/>
  <rect width="1200" height="300" rx="12" fill="url(#glow)"/>

  <!-- Laravel logo -->
  <g transform="translate(410, 52) scale(0.19)">
    <path fill="#FF2D20" opacity="0.9" d="M357.38,149.42c-0.03-0.13-0.11-0.24-0.15-0.37c-0.09-0.23-0.16-0.47-0.28-0.68c-0.08-0.14-0.2-0.26-0.3-0.39 c-0.13-0.17-0.24-0.36-0.39-0.51c-0.13-0.13-0.29-0.22-0.43-0.33c-0.16-0.13-0.3-0.27-0.48-0.37c0,0,0,0,0,0c0,0,0,0,0,0 l-52.45-30.2c-1.35-0.78-3.01-0.78-4.36,0l-52.45,30.2c0,0,0,0,0,0c0,0,0,0,0,0c-0.18,0.1-0.32,0.25-0.48,0.37 c-0.14,0.11-0.3,0.2-0.43,0.33c-0.15,0.15-0.26,0.34-0.39,0.51c-0.1,0.13-0.22,0.25-0.3,0.39c-0.12,0.21-0.2,0.45-0.28,0.68 c-0.05,0.12-0.12,0.24-0.15,0.37c-0.1,0.37-0.15,0.75-0.15,1.14v57.36l-43.71,25.17V120.87c0-0.39-0.05-0.77-0.15-1.14 c-0.03-0.13-0.11-0.24-0.15-0.37c-0.09-0.23-0.16-0.47-0.28-0.68c-0.08-0.14-0.2-0.26-0.3-0.39c-0.13-0.17-0.24-0.36-0.39-0.51 c-0.13-0.13-0.29-0.22-0.43-0.33c-0.16-0.13-0.3-0.27-0.48-0.37c0,0,0,0,0,0c0,0,0,0,0,0l-52.45-30.2c-1.35-0.78-3.01-0.78-4.36,0 l-52.45,30.2c0,0,0,0,0,0c0,0,0,0,0,0c-0.18,0.1-0.32,0.25-0.48,0.37c-0.14,0.11-0.3,0.2-0.43,0.33c-0.15,0.15-0.26,0.34-0.39,0.51 c-0.1,0.13-0.22,0.25-0.3,0.39c-0.12,0.21-0.2,0.45-0.28,0.68c-0.05,0.12-0.12,0.24-0.15,0.37c-0.1,0.37-0.15,0.75-0.15,1.14v179.66 c0,1.56,0.84,3.01,2.19,3.79l104.91,60.4c0.23,0.13,0.48,0.21,0.72,0.3c0.11,0.04,0.22,0.11,0.34,0.14c0.37,0.1,0.74,0.15,1.12,0.15 s0.75-0.05,1.12-0.15c0.1-0.03,0.19-0.09,0.29-0.12c0.26-0.09,0.52-0.18,0.76-0.31l104.91-60.4c1.36-0.78,2.19-2.22,2.19-3.79 v-57.36l50.26-28.94c1.36-0.78,2.19-2.22,2.19-3.79v-59.89C357.53,150.17,357.47,149.79,357.38,149.42z M195.78,295.5l-43.63-24.69 l45.82-26.38c0,0,0,0,0,0l50.27-28.94l43.67,25.14l-32.04,18.29L195.78,295.5z M296.33,183.29v49.8l-18.36-10.57l-25.36-14.6v-49.8 l18.36,10.57L296.33,183.29z M300.7,125.4l43.69,25.16l-43.69,25.16l-43.69-25.16L300.7,125.4z M166.07,252.72l-18.36,10.57V153.6 l25.36-14.6l18.36-10.57v109.68L166.07,252.72z M143.34,95.72l43.69,25.16l-43.69,25.16l-43.69-25.16L143.34,95.72z M95.25,128.43 L113.61,139l25.36,14.6v117.24c0,0,0,0.01,0,0.01s0,0.01,0,0.01c0,0.17,0.05,0.33,0.07,0.49c0.03,0.21,0.03,0.43,0.09,0.64 c0,0,0,0.01,0,0.01c0.05,0.17,0.14,0.33,0.21,0.49c0.08,0.18,0.13,0.38,0.23,0.55c0,0,0,0.01,0.01,0.01 c0.09,0.15,0.22,0.28,0.33,0.42c0.12,0.16,0.22,0.32,0.36,0.46c0,0,0.01,0.01,0.01,0.01c0.12,0.12,0.28,0.21,0.42,0.32 c0.16,0.12,0.3,0.26,0.47,0.36c0.01,0,0.01,0,0.02,0.01c0.01,0,0.01,0.01,0.02,0.01l50.24,28.43v50.29L95.25,298V128.43z M296.33,298l-96.17,55.37v-50.3l71.22-40.66l24.95-14.24V298z M348.78,207.92l-43.71,25.17v-49.8l25.36-14.6l18.36-10.57V207.92z"/>
  </g>

  <!-- Langfuse icon -->
  <g transform="translate(700, 52) scale(0.132)">
    <path fill="#E11312" opacity="0.9" d="M155.765 103.453C198.594 101.328 230.622 119.267 247.13 131.257C234.633 142.295 200.817 168.932 160.818 184.316C158.121 185.28 154.541 186.71 150.462 188.793C121.52 203.048 104.31 231.457 103.542 261.808C103.413 266.916 103.673 272.006 104.349 277.007C104.276 277.016 104.203 277.026 104.131 277.036C104.013 282.241 104.451 294.488 111.981 307.308C118.703 318.747 127.716 324.879 132.197 327.524C134.42 329.006 137.949 331.141 142.351 333.354C147.523 336.109 153.257 338.42 159.582 340.207C160.551 340.488 161.531 340.753 162.52 341.001C164.821 341.576 167.33 342.171 170.036 342.814C189.12 347.343 218.035 354.206 253.489 372.84C257.07 375.846 260.929 378.875 265.067 381.836C263.81 382.961 262.751 383.944 261.896 384.751C254.585 390.934 214.457 423.632 155.765 418.444C131.742 416.321 111.864 408.488 96.3149 399.391C70.119 384.077 50.3247 359.853 39.5263 331.5C32.5688 313.222 26.5041 289.587 26.0661 261.774C25.6787 238.021 29.4859 217.098 34.6745 199.746C50.5605 146.731 96.8876 107.85 152.11 103.689C153.322 103.605 154.535 103.52 155.765 103.453ZM455.742 356.124C446.129 349.001 429.635 338.603 406.79 332.577C382.565 326.193 361.996 327.574 349.968 329.292C346.042 330.573 341.966 331.617 337.72 332.409C304.314 338.608 277.209 320.448 263.951 308.959C261.373 306.731 258.716 304.603 255.986 302.578C264.908 294.736 274.719 287.969 285.414 282.714C309.285 270.989 345.774 271.225 388.243 273.583C446.767 276.851 487.198 304.732 503.336 317.535C505.139 318.967 506.166 321.123 506.166 323.414V376.025C506.166 382.477 498.602 385.93 493.734 381.702C485.011 374.15 472.183 364.489 455.742 356.124ZM268.112 198.921C264.275 203.078 260.24 207.04 256.008 210.76C264.204 216.84 273.061 221.988 282.432 226.11C305.511 236.285 337.233 238.273 378.135 238.223C438.125 238.139 482.295 215.548 502.561 203.25C504.802 201.886 506.166 199.46 506.166 196.832V132.26C506.166 126.111 499.226 122.574 494.239 126.162C482.435 134.658 464.882 145.501 442.244 154.031C434.092 158.837 423.933 163.744 411.827 167.469C385.429 175.589 362.602 174.191 349.496 172.355C320.959 165.229 289.608 175.623 268.112 198.921Z"/>
    <path fill="#0A60B5" opacity="0.9" d="M457 357.752C434.447 388.263 399.909 408.62 360.938 411.591C359.724 411.676 358.511 411.761 357.28 411.829C311.584 414.104 277.065 393.256 254.175 373.9C213.67 352.456 181.979 347.056 163.437 342.387C149.952 338.991 138.153 332.2 133.096 328.804C128.613 326.138 119.595 319.958 112.869 308.43C105.335 295.509 104.896 283.166 105.014 277.92C108.942 277.393 114.015 276.816 119.949 276.442C124.803 276.137 129.506 276.018 134.782 276.001C175.708 275.95 207.448 277.953 230.541 288.208C243.031 293.743 254.611 301.112 264.927 310.094C278.192 321.673 305.313 339.976 338.739 333.728C342.986 332.93 347.066 331.877 350.993 330.587C363.028 328.855 383.609 327.463 407.848 333.898C430.856 340.01 447.409 350.571 457 357.752Z"/>
    <path fill="#0A60B5" opacity="0.9" d="M454 147.632C443.832 134.459 431.474 122.006 416.878 113.508C401.324 104.458 381.476 96.6646 357.471 94.5528C298.821 89.3907 258.722 121.922 251.416 128.073C242.326 136.604 205.964 166.789 162.196 183.549C154.57 186.264 139.891 192.683 126.844 207.013C116.525 218.343 111.475 229.94 109 237.147C114.219 237.868 119.605 238.388 125.161 238.706C167.599 241.069 204.062 241.304 227.916 229.622C243.673 221.912 257.493 210.935 269.412 198.08C290.892 174.9 322.22 164.56 350.737 171.649C363.834 173.476 386.644 174.867 413.023 166.789C431.238 161.208 444.809 154.185 454 147.632Z"/>
    <path fill="#0A60B5" opacity="0.9" d="M56 157.414C39.7299 149.051 27.0288 139.404 18.366 131.853C13.5235 127.629 6 131.092 6 137.546V190.307C6 192.605 7.03887 194.784 8.81501 196.203L30.4303 217C31.5697 208.637 34.0161 197.267 39.5121 184.698C44.6897 172.838 50.9062 163.766 56 157.414Z"/>
    <path fill="#0A60B5" opacity="0.9" d="M404 275.157C406.473 267.536 407.845 259.542 408.049 251.396C408.218 244.96 407.473 242.555 406.355 236.323C417.857 234.392 432.222 231.242 445.317 227.855C459.157 224.282 469.389 220.132 480.891 216C482.568 224.045 484.33 227.957 484.939 233.918C485.515 239.541 485.871 245.367 485.973 251.396C486.278 270.127 483.991 287.113 480.467 302C469.626 296.377 456.751 290.551 441.929 285.437C428.14 280.661 415.316 277.409 404 275.157Z"/>
    <path fill="#0A60B5" opacity="0.9" d="M17.8633 386.557C12.9035 390.158 6 386.608 6 380.438V315.638C6 313.677 6.75402 311.817 8.06099 310.431C8.71448 309.738 9.31769 309.349 9.58579 309.197L31 300C32.5751 308.588 35.1723 318.867 39.5121 330.058C44.5891 343.143 50.6213 353.743 56 361.807C43.2822 370.057 30.5643 378.307 17.8633 386.557Z"/>
  </g>

  <!-- Accent line -->
  <rect x="500" y="175" width="200" height="1.5" rx="1" fill="url(#accent)"/>

  <!-- Package name -->
  <text x="600" y="210" font-family="'SF Pro Display', -apple-system, BlinkMacSystemFont, 'Segoe UI', sans-serif" font-size="36" font-weight="600" letter-spacing="1" fill="#e2e8f0" text-anchor="middle">Laravel Langfuse</text>

  <!-- Tagline -->
  <text x="600" y="240" font-family="'SF Pro Display', -apple-system, BlinkMacSystemFont, 'Segoe UI', sans-serif" font-size="14" font-weight="400" letter-spacing="3" fill="#64748b" text-anchor="middle" text-transform="uppercase">LLM OBSERVABILITY FOR LARAVEL</text>
</svg>
